<svg xmlns="http://www.w3.org/2000/svg" width="1200" height="675" viewBox="0 0 1200 675">
  <defs>
    <linearGradient id="bg" x1="0" y1="0" x2="1" y2="1">
      <stop offset="0%" stop-color="#0f172a"/>
      <stop offset="100%" stop-color="#111827"/>
    </linearGradient>
    <linearGradient id="accent" x1="0" y1="0" x2="1" y2="0">
      <stop offset="0%" stop-color="#f59e0b"/>
      <stop offset="100%" stop-color="#fbbf24"/>
    </linearGradient>
  </defs>
  <rect width="1200" height="675" fill="url(#bg)"/>
  <circle cx="980" cy="120" r="140" fill="#1f2937" opacity="0.6"/>
  <circle cx="220" cy="560" r="180" fill="#111827" opacity="0.6"/>

  <rect x="80" y="80" width="1040" height="515" rx="24" fill="#0b1220" stroke="#1f2937" stroke-width="2"/>

  <text x="120" y="150" fill="#f8fafc" font-family="'DM Sans', Arial, sans-serif" font-size="36" font-weight="700">Issue Signed Civic Documents</text>
  <text x="120" y="190" fill="#94a3b8" font-family="'DM Sans', Arial, sans-serif" font-size="16">Visual Model</text>

  <rect x="120" y="240" width="320" height="60" rx="12" fill="#111827" stroke="#374151"/>
  <rect x="480" y="240" width="320" height="60" rx="12" fill="#111827" stroke="#374151"/>
  <rect x="840" y="240" width="240" height="60" rx="12" fill="#111827" stroke="#374151"/>

  <text x="150" y="276" fill="#e2e8f0" font-family="'DM Sans', Arial, sans-serif" font-size="16">Inputs</text>
  <text x="510" y="276" fill="#e2e8f0" font-family="'DM Sans', Arial, sans-serif" font-size="16">Processing</text>
  <text x="870" y="276" fill="#e2e8f0" font-family="'DM Sans', Arial, sans-serif" font-size="16">Proof</text>

  <rect x="120" y="340" width="960" height="12" rx="6" fill="#1f2937"/>
  <rect x="120" y="340" width="540" height="12" rx="6" fill="url(#accent)"/>

  <rect x="120" y="400" width="960" height="120" rx="16" fill="#0f172a" stroke="#1f2937"/>
  <text x="150" y="440" fill="#f8fafc" font-family="'DM Sans', Arial, sans-serif" font-size="18">Goal</text>
  <text x="150" y="468" fill="#94a3b8" font-family="'DM Sans', Arial, sans-serif" font-size="14">Define constraints, run the practice, and submit proof evidence.</text>

  <rect x="120" y="540" width="220" height="40" rx="12" fill="#111827" stroke="#374151"/>
  <text x="150" y="565" fill="#fbbf24" font-family="'DM Sans', Arial, sans-serif" font-size="14" font-weight="600">Next Step</text>
</svg>
